**ABCDEFGHIJKLMNOPQRSTUVWXYZabcdefghijklmnopqrstuvwxyz**************************
**PARASOLID !"#$%&'()*+,-./:;<=>?@[\]^_`{|}~0123456789**************************
**PART1;
MC=unknown;
MC_MODEL=unknown;
MC_ID=unknown;
OS=unknown;
OS_RELEASE=unknown;
FRU=Parasolid 34.1.198;
APPL=Onshape;
SITE=unknown;
USER=unknown;
FORMAT=text;
GUISE=transmit;
KEY=BTGapi::writeModels_.xmt;
FILE=BTGapi::writeModels_.xmt;
DATE=2022-07-24T13:00:12 (UTC);
**PART2;
SCH=SCH_3401198_34101;
USFLD_SIZE=0;
**PART3;
**END_OF_HEADER*****************************************************************
T51 : TRANSMIT FILE created by modeller version 340119823 SCH_3401198_34101_1300
6231 0 176 6 14 PART_XMT_BLOCK9 Part list9 n_entries0 0 1 d16 index_map_offset0
 0 1 d9 index_map82 0 20 schema_embedding_map82 0 16 mesh_offset_data206 0 7 ent
ries1005 1 T12 1 12 0 0 0 0 2 3 4 5 6 7 8 9 10 11 12 13 12 36 CCCI7 lattice222 0
 CCCI4 mesh1006 0 I8 polyline1008 0 CCCCCCCDI5 owner1040 0 CCCI16 boundary_latti
ce222 0 CCCI13 boundary_mesh1006 0 I17 boundary_polyline1008 0 CCCA16 index_map_
offset0 0 1 dA9 index_map82 0 A17 node_id_index_map82 0 A20 schema_embedding_map
82 0 A5 child12 0 A14 lowest_node_id0 0 1 dA16 mesh_offset_data206 0 Z2 63 14 15
 0 0 0 0 0 0 0 1e3 1e-8 0 11 16 1 0 1 1 17 0 18 19 0 0 0 20 21 0 0 0 0 0 0 0 0 1
2 3 33 22 23 0 0 0 0 0 0 0 1e3 1e-8 0 24 12 1 0 3 1 25 0 26 27 0 0 0 28 29 0 0 0
 0 0 0 0 0 12 4 57 30 31 0 0 0 0 0 0 0 1e3 1e-8 0 12 5 1 0 1 1 32 0 33 34 0 0 0
 35 36 0 0 0 0 0 0 0 0 12 5 57 37 38 0 0 0 0 0 0 0 1e3 1e-8 0 4 6 1 0 1 1 39 0 4
0 41 0 0 0 42 43 0 0 0 0 0 0 0 0 12 6 328 44 45 0 0 0 0 0 0 0 1e3 1e-8 0 5 13 1
 0 1 1 46 0 47 48 49 0 0 50 51 52 0 0 0 0 0 0 0 12 7 32 53 54 0 0 0 0 0 0 0 1e3
 1e-8 0 13 10 1 0 3 1 55 0 56 57 0 0 0 58 59 0 0 0 0 0 0 0 0 12 8 200 60 61 0 0
 0 0 0 0 0 1e3 1e-8 0 62 0 1 0 1 1 63 0 64 65 66 0 0 67 68 69 0 0 0 0 0 0 0 12 9
 319 70 71 0 0 0 0 0 0 0 1e3 1e-8 0 72 73 1 0 1 1 74 0 75 76 77 0 0 78 79 80 0 0
 0 0 0 0 0 12 10 37 81 82 0 0 0 0 0 0 0 1e3 1e-8 0 7 11 1 0 3 1 83 0 84 85 0 0 0
 86 87 0 0 0 0 0 0 0 0 12 11 63 88 89 0 0 0 0 0 0 0 1e3 1e-8 0 10 2 1 0 1 1 90 0
 91 92 0 0 0 93 94 0 0 0 0 0 0 0 0 12 12 28 95 96 0 0 0 0 0 0 0 1e3 1e-8 0 3 4 1
 0 3 1 97 0 98 99 0 0 0 100 101 0 0 0 0 0 0 0 0 12 13 328 102 103 0 0 0 0 0 0 0
 1e3 1e-8 0 6 7 1 0 1 1 104 0 105 106 107 0 0 108 109 110 0 0 0 0 0 0 0 81 255 1
 102 320 111 13 112 0 0 0 113 70 11 CI9 list_type0 0 1 uI10 notransmit0 0 1 lCCC
DCCDI12 finger_index0 0 1 dI12 finger_block1012 0 CZ103 0 4 T13 0 0 5 20 1 114 1
14 13 255 104 181 0 13 0 115 0 0 116 0 50 255 105 176 0 115 117 0 0 +.0885328942
909837 .0248684212565422 .013 0 -1 0 0 0 -1 30 255 106 180 0 118 119 0 0 +.07706
57885819674 .0248684212565422 .013 0 0 -1 29 255 107 157 0 120 121 0 .1227500014
007092 .0248684212565422 0 19 9 CCCCCCI5 frame230 0 CA5 owner12 0 Z108 77 0 13 1
16 0 122 0 V0 16 255 109 244 123 ?124 0 118 125 0 0 13 18 255 110 71 126 127 0 1
28 129 ?13 81 1 126 292 130 110 0 0 131 132 133 17 255 127 0 134 135 136 110 137
 138 0 139 -18 128 66 140 141 110 142 143 ?13 29 129 73 0 110 143 144 .122750001
4007092 .0248684212565422 .013 29 143 68 0 128 145 129 .1227500014007092 -.03518
421202898025 .013 29 144 160 0 146 129 147 .0770657885819674 .0248684212565422 0
 18 146 148 148 149 150 0 144 ?13 29 147 159 0 150 144 121 .0770657885819674 -.0
3518421202898025 0 18 150 144 151 152 153 146 147 ?13 29 121 158 0 153 147 107 .
1227500014007092 -.03518421202898025 0 18 153 140 132 154 120 150 121 ?13 81 1 1
32 293 130 153 0 0 126 140 155 17 154 0 134 136 135 153 141 156 0 157 +18 120 13
6 131 137 158 153 107 ?13 81 1 131 291 130 120 0 0 159 126 160 17 137 0 161 162
 139 120 127 138 0 163 +18 158 46 164 165 142 120 166 ?13 81 1 164 288 130 158 0
 0 148 151 167 17 165 0 168 169 170 158 171 172 0 173 -18 142 51 159 171 128 158
 145 ?13 29 166 48 0 158 0 145 .0770657885819674 .0248684212565422 .013 29 145 5
3 0 142 166 143 .0770657885819674 -.03518421202898025 .013 81 1 159 290 130 142
 0 0 151 131 174 17 171 0 175 176 173 142 165 172 0 170 +15 255 175 6 0 173 177
 0 17 176 0 175 178 171 128 179 180 0 135 -17 173 0 175 171 178 158 139 181 0 18
2 +16 172 16 183 ?171 180 181 184 0 0 13 17 170 0 168 165 185 142 152 186 0 179
 -15 168 169 0 185 187 0 17 185 0 168 170 169 150 149 188 0 189 +17 152 0 190 15
7 179 150 170 186 0 185 +16 186 163 191 ?152 118 156 119 0 0 13 17 179 0 190 152
 141 142 176 180 0 0 +15 190 167 0 157 192 0 17 141 0 190 179 157 128 154 156 0
 176 -16 180 21 193 ?179 194 172 195 0 0 13 81 1 193 302 130 180 0 0 196 197 198
 16 194 41 199 ?135 138 180 200 0 0 13 30 195 23 0 180 184 200 0 +.0885328942909
837 -.03518421202898025 .013 -1 0 0 30 184 18 0 172 201 195 0 +.0770657885819674
 -.00515789538621903 .013 0 -1 0 30 200 43 0 194 195 202 0 +.1227500014007092 -.
00515789538621903 .013 0 -1 0 30 202 156 0 203 200 204 0 +.0885328942909837 .024
8684212565422 0 -1 0 0 16 203 130 205 ?162 188 206 202 0 0 13 30 204 155 0 188 2
02 207 0 +.0770657885819674 -.00515789538621903 0 0 -1 0 16 188 126 197 ?185 208
 203 204 0 0 13 30 207 154 0 208 204 209 0 +.0885328942909837 -.0351842120289802
5 0 -1 0 0 16 208 120 196 ?189 210 188 207 0 0 13 30 209 153 0 210 207 211 0 +.1
227500014007092 -.00515789538621903 0 0 -1 0 16 210 116 212 ?213 181 208 209 0 0
 13 30 211 177 0 138 209 214 0 +.1227500014007092 .0248684212565422 .013 0 0 -1
 16 138 161 215 ?137 156 194 211 0 0 13 30 214 178 0 156 211 119 0 +.12275000140
07092 -.03518421202898025 .013 0 0 -1 16 156 162 216 ?154 186 138 214 0 0 13 30
 119 179 0 186 214 106 0 +.0770657885819674 -.03518421202898025 .013 0 0 -1 81 1
 216 298 130 156 0 0 215 205 217 80 7 CCCCCDI12 legal_owners0 16 1 lCZ1 130 218
 219 9000 0 0 0 0 3 6 0 0 0 FFTFTFTTFFFFFFFF1 81 1 215 297 130 138 0 0 191 216 2
20 81 1 205 299 130 203 0 0 216 221 222 82 255 3 217 16 3 1 81 1 221 300 130 181
 0 0 205 196 223 82 3 222 16 4 1 16 181 11 221 ?173 172 210 201 0 0 13 81 1 196
 301 130 208 0 0 221 193 224 82 3 223 16 5 1 82 3 224 16 6 1 30 201 13 0 181 125
 184 0 +.0885328942909837 .0248684212565422 .013 -1 0 0 31 255 125 280 0 109 225
 201 0 +.1 .00664540752768517 .013 0 0 1 1 0 0 .01409186423747982 31 225 281 0 2
06 0 125 0 +.1 .00664540752768517 .163 0 0 1 1 0 0 .01409186423747982 16 206 259
 226 ?227 203 0 225 0 0 13 81 1 226 307 130 206 0 0 199 123 228 17 227 0 229 227
 227 0 230 206 0 0 +15 229 270 0 227 231 0 17 230 0 232 230 230 0 227 206 0 0 -1
5 232 265 0 230 233 234 14 255 233 262 235 ?231 236 232 104 237 -0 0 231 236 122
 15 234 266 0 124 233 0 17 124 0 234 124 124 0 238 109 0 0 +17 238 0 239 238 238
 0 124 109 0 0 -15 239 246 0 238 177 175 14 177 1 240 ?236 241 239 104 242 +0 0
 236 241 122 81 1 240 325 243 177 244 0 245 246 247 14 236 105 246 ?233 177 248
 104 249 -0 0 233 177 122 14 241 166 245 ?177 192 134 104 250 +0 0 177 192 122 5
0 242 3 0 177 237 249 0 +.0999078949913383 -.00515789538621903 .013 0 0 1 1 0 0
 13 122 78 0 0 0 0 0 0 108 115 14 115 172 251 ?187 0 161 104 105 -0 0 187 0 122
 81 1 251 321 243 115 252 0 0 253 254 14 187 170 253 ?192 115 168 104 117 -0 0 1
92 115 122 15 161 171 0 162 115 0 17 162 0 161 182 137 146 163 203 0 0 +17 182 0
 161 139 162 158 169 118 0 0 -17 163 0 248 213 149 120 162 203 0 136 -15 248 115
 0 163 236 0 17 213 0 248 189 163 153 136 210 0 0 +17 149 0 248 163 189 146 185
 188 0 169 -17 136 0 134 127 154 120 213 210 0 0 -15 134 165 0 136 241 0 17 189
 0 248 149 213 150 157 208 0 0 +17 169 0 168 185 165 146 182 118 0 162 +16 118 1
64 255 ?169 109 186 106 0 0 13 81 1 255 295 130 118 0 0 140 191 256 81 1 140 294
 130 128 0 0 132 255 257 81 1 191 296 130 186 0 0 255 215 258 82 3 256 16 0 1 82
 3 258 16 1 1 82 3 257 16 7 0 17 157 0 190 141 152 153 189 208 0 213 -17 139 0 1
61 137 182 110 173 181 0 178 -17 178 0 175 173 176 110 135 194 0 0 -17 135 0 134
 154 127 128 178 194 0 0 +81 1 253 322 243 187 259 0 251 260 261 14 192 168 260
 ?241 187 190 104 262 +0 0 241 187 122 50 117 175 0 187 262 105 0 +.077065788581
9674 -.00515789538621903 .013 1 0 0 0 0 -1 50 262 174 0 192 250 117 0 +.08853289
42909837 -.03518421202898025 .013 0 -1 0 0 0 -1 50 250 173 0 241 249 262 0 +.122
7500014007092 -.00515789538621903 .013 1 0 0 0 0 -1 50 249 152 0 236 242 250 0 +
.0999078949913383 -.00515789538621903 0 0 0 1 1 0 0 81 1 260 323 243 192 263 0 2
53 245 264 80 1 243 0 265 8001 0 0 0 0 3 5 0 0 0 FFFFTFTFFFFFFFFF2 81 1 263 311
 130 192 0 260 252 259 266 81 1 245 324 243 241 267 0 260 240 268 83 255 3 264 .
498039215686275 .498039215686275 .498039215686275 81 1 267 313 130 241 0 245 259
 269 270 83 3 268 .498039215686275 .498039215686275 .498039215686275 81 1 259 31
2 130 187 0 253 263 267 271 81 1 269 314 130 233 0 235 267 272 273 82 3 270 16 4
 2 81 1 235 327 243 233 269 0 246 274 275 81 1 272 315 130 231 0 274 269 244 276
 82 3 273 16 5 2 14 231 267 274 ?0 233 229 104 277 +0 0 0 233 122 81 1 274 328 2
43 231 272 0 235 0 278 81 1 244 316 130 177 0 240 272 279 280 82 3 276 16 6 2 81
 1 279 317 130 13 0 281 244 0 282 82 3 280 16 7 2 81 1 281 318 283 13 279 112 0
 0 284 82 3 282 16 0 3 80 1 283 285 286 8038 0 0 0 0 0 0 0 0 0 TTTTTTTTTTTTTFTF1
0 81 1 112 319 285 13 281 102 0 0 287 98 255 6 284 80 97 114 116 32 53 80 1 285
 288 289 8017 0 0 0 0 0 0 0 0 0 TTTTTTTTTTTTTFTF3 84 255 6 287 Part 579 255 13 2
89 SDL/TYSA_NAME79 14 286 SDL/TYSA_UNAME83 3 278 .498039215686275 .4980392156862
75 .498039215686275 50 277 279 0 231 0 237 0 +.0999078949913383 -.00515789538621
903 .163 0 0 1 1 0 0 51 255 237 277 0 233 277 242 0 -.1 .00664540752768517 .163
 0 0 -1 .01409186423747982 -1 0 0 81 1 246 326 243 236 290 0 240 235 291 83 3 27
5 .498039215686275 .498039215686275 .498039215686275 81 1 290 309 130 236 0 246
 123 252 292 83 3 291 .498039215686275 .498039215686275 .498039215686275 81 1 12
3 308 130 109 0 0 226 290 293 81 1 252 310 130 115 0 251 290 263 294 82 3 292 16
 0 2 82 3 294 16 1 2 82 3 293 16 13 1 82 3 271 16 3 2 82 3 266 16 2 2 79 15 265
 SDL/TYSA_COLOUR83 3 261 .498039215686275 .498039215686275 .498039215686275 83 3
 254 .498039215686275 .498039215686275 .498039215686275 83 3 247 .49803921568627
5 .498039215686275 .498039215686275 81 1 199 306 130 194 0 0 212 226 295 82 3 22
8 16 12 1 81 1 212 305 130 210 0 0 183 199 296 82 3 295 16 11 1 81 1 183 304 130
 172 0 0 197 212 297 82 3 296 16 10 1 81 1 197 303 130 188 0 0 193 183 298 82 3
 297 16 9 1 82 3 298 16 8 1 82 3 220 16 2 1 79 9 219 BTI/DetId82 3 198 16 7 1 81
 1 151 289 130 150 0 0 164 159 299 82 3 174 16 3 0 82 3 299 16 2 0 81 1 148 287
 130 146 0 0 0 164 300 82 3 167 16 1 0 82 3 300 16 0 0 82 3 160 16 4 0 82 3 155
 16 6 0 82 3 133 16 5 0 19 116 182 0 13 0 108 104 0 S0 74 4 CI16 index_map_offse
t0 0 1 dCCZ20 114 5 0 0 279 281 112 102 274 0 0 0 0 0 0 0 0 0 0 0 0 0 0 0 80 1 1
11 243 301 8040 0 0 0 0 3 5 0 0 0 TTTFFFFFFFFFFFFF2 83 3 113 .498039215686275 .4
98039215686275 .498039215686275 79 17 301 SDL/TYSA_COLOUR_281 1 95 27 111 12 302
 0 0 0 303 70 96 0 4 T12 0 0 5 20 1 304 304 13 97 2 0 12 0 305 0 0 100 305 51 98
 18 0 305 0 0 0 +-.02 .00686859665438533 .0746894702315331 1 0 0 .02001429254580
74 0 0 -1 31 99 13 0 101 306 0 0 +.02 .00686859665438533 .0746894702315331 1 0 0
 0 1 0 .0200142925458074 19 100 1 0 12 0 0 97 0 V0 16 101 9 307 ?308 0 309 99 0
 0 12 81 1 307 22 130 101 0 0 310 311 312 17 308 0 0 0 0 0 313 101 0 0 +16 309 3
 310 ?314 101 0 306 0 0 12 81 1 310 21 130 309 0 0 0 307 315 17 314 0 316 314 31
4 0 317 309 0 0 +31 306 6 0 309 0 99 0 +-.02 .00686859665438533 .074689470231533
1 1 0 0 0 1 0 .0200142925458074 15 316 14 0 314 305 318 17 317 0 0 0 0 0 314 309
 0 0 -14 305 15 319 ?0 0 316 97 98 +0 0 0 0 97 15 318 16 0 313 305 0 17 313 0 31
8 313 313 0 308 101 0 0 -81 1 319 28 243 305 311 0 0 0 320 81 1 311 23 130 305 0
 319 307 321 322 83 3 320 .498039215686275 .498039215686275 .498039215686275 81
 1 321 24 130 12 0 323 311 0 324 82 3 322 13 0 2 81 1 323 25 283 12 321 302 0 0
 325 82 3 324 13 0 3 81 1 302 26 285 12 323 95 0 0 326 98 9 325 83 117 114 102 9
7 99 101 32 49 84 9 326 Surface 182 3 315 13 0 1 82 3 312 13 1 1 74 20 304 5 0 0
 321 323 302 95 319 0 0 0 0 0 0 0 0 0 0 0 0 0 0 0 83 3 303 .498039215686275 .498
039215686275 .498039215686275 81 1 88 60 111 11 327 0 0 0 328 70 89 0 4 T11 0 0
 5 20 1 329 329 13 90 14 0 11 0 330 0 0 331 0 51 91 43 0 330 332 0 0 +.1 .006868
59665438533 .0746894702315331 1 0 0 .0200142925458074 0 0 -1 31 92 42 0 333 334
 0 0 +.08 .00686859665438533 .0746894702315331 1 0 0 0 0 -1 .0200142925458074 19
 93 13 0 11 331 0 335 0 V0 16 94 7 336 ?337 0 333 334 0 0 11 81 1 336 52 130 94
 0 0 0 338 339 17 337 0 340 337 337 0 341 94 0 0 +16 333 38 338 ?342 94 0 92 0 0
 11 31 334 20 0 94 0 92 0 +.12 .00686859665438533 .0746894702315331 1 0 0 0 0 -1
 .0200142925458074 81 1 338 53 130 333 0 0 336 343 344 17 342 0 345 342 342 0 34
6 333 0 0 +15 345 33 0 342 330 0 17 346 0 347 346 346 0 342 333 0 0 -15 347 37 0
 346 348 0 14 348 34 349 ?0 350 347 90 332 -0 0 0 350 335 81 1 349 63 243 348 35
1 0 352 0 353 14 350 1 352 ?348 330 340 90 354 +0 0 348 330 335 50 332 41 0 348
 354 91 0 +.08 .00686859665438533 .107072555601381 1 0 0 0 1 0 13 335 27 0 0 0 0
 0 0 93 330 14 330 26 355 ?350 0 356 90 91 +0 0 350 0 335 81 1 355 61 243 330 34
3 0 0 352 357 15 356 25 0 341 330 345 17 341 0 356 341 341 0 337 94 0 0 -81 1 34
3 54 130 330 0 355 338 358 359 81 1 352 62 243 350 358 0 355 349 360 83 3 357 .4
98039215686275 .498039215686275 .498039215686275 81 1 358 55 130 350 0 352 343 3
51 361 83 3 360 .498039215686275 .498039215686275 .498039215686275 81 1 351 56 1
30 348 0 349 358 362 363 82 3 361 16 12 2 81 1 362 57 130 11 0 364 351 0 365 82
 3 363 16 13 2 81 1 364 58 283 11 362 327 0 0 366 82 3 365 16 3 3 81 1 327 59 28
5 11 364 88 0 0 367 98 6 366 80 97 114 116 32 54 84 6 367 Part 682 3 359 16 10 2
 50 354 19 0 350 0 332 0 +.12 .00686859665438533 .107072555601381 1 0 0 0 1 0 15
 340 6 0 337 350 0 83 3 353 .498039215686275 .498039215686275 .498039215686275 8
2 3 344 16 19 1 82 3 339 16 18 1 19 331 30 0 11 0 93 90 0 S0 74 20 329 5 0 0 362
 364 327 88 349 0 0 0 0 0 0 0 0 0 0 0 0 0 0 0 83 3 328 .498039215686275 .4980392
15686275 .498039215686275 81 1 81 36 111 10 368 0 0 0 369 70 82 0 4 T10 0 0 5 20
 1 370 370 13 83 6 0 10 0 371 0 0 86 371 51 84 23 0 371 0 0 0 +.08 .006868596654
38533 .1392835080623626 1 0 0 .0201864254546735 0 0 -1 31 85 18 0 87 372 0 0 +.1
2 .00686859665438533 .1392835080623626 1 0 0 0 1 0 .0201864254546735 19 86 1 0 1
0 0 0 83 0 V0 16 87 14 373 ?374 0 375 85 0 0 10 81 1 373 31 130 87 0 0 376 377 3
78 17 374 0 0 0 0 0 379 87 0 0 +16 375 5 376 ?380 87 0 372 0 0 10 81 1 376 30 13
0 375 0 0 0 373 381 17 380 0 382 380 380 0 383 375 0 0 +31 372 7 0 375 0 85 0 +.
08 .00686859665438533 .1392835080623626 1 0 0 0 1 0 .0201864254546735 15 382 19
 0 380 371 384 17 383 0 0 0 0 0 380 375 0 0 -14 371 20 385 ?0 0 382 83 84 +0 0 0
 0 83 15 384 21 0 379 371 0 17 379 0 384 379 379 0 374 87 0 0 -81 1 385 37 243 3
71 377 0 0 0 386 81 1 377 32 130 371 0 385 373 387 388 83 3 386 .498039215686275
 .498039215686275 .498039215686275 81 1 387 33 130 10 0 389 377 0 390 82 3 388 1
6 9 2 81 1 389 34 283 10 387 368 0 0 391 82 3 390 16 2 3 81 1 368 35 285 10 389
 81 0 0 392 98 9 391 83 117 114 102 97 99 101 32 52 84 9 392 Surface 482 3 381 1
6 16 1 82 3 378 16 17 1 74 20 370 5 0 0 387 389 368 81 385 0 0 0 0 0 0 0 0 0 0 0
 0 0 0 0 83 3 369 .498039215686275 .498039215686275 .498039215686275 81 1 70 311
 111 9 393 0 0 0 394 70 71 0 4 T9 0 0 5 20 1 395 395 13 74 181 0 9 0 396 0 0 397
 0 50 75 176 0 396 398 0 0 +-.01146710570901632 .0248684212565422 .013 0 -1 0 0
 0 -1 30 76 180 0 399 400 0 0 +-.02293421141803265 .0248684212565422 .013 0 0 -1
 29 77 157 0 401 402 0 .02275000140070915 .0248684212565422 0 19 78 77 0 9 397 0
 403 0 V0 16 79 244 404 ?405 0 399 406 0 0 9 18 80 71 407 408 0 409 410 ?9 81 1
 407 203 130 80 0 0 411 412 413 17 408 0 414 415 416 80 417 418 0 419 -18 409 66
 420 421 80 422 423 ?9 29 410 73 0 80 423 424 .02275000140070915 .02486842125654
22 .013 29 423 68 0 409 425 410 .02275000140070915 -.03518421202898025 .013 29 4
24 160 0 426 410 427 -.02293421141803265 .0248684212565422 0 18 426 148 428 429
 430 0 424 ?9 29 427 159 0 430 424 402 -.02293421141803265 -.03518421202898025 0
 18 430 144 431 432 433 426 427 ?9 29 402 158 0 433 427 77 .02275000140070915 -.
03518421202898025 0 18 433 140 412 434 401 430 402 ?9 81 1 412 204 130 433 0 0 4
07 420 435 17 434 0 414 416 415 433 421 436 0 437 +18 401 136 411 417 438 433 77
 ?9 81 1 411 202 130 401 0 0 439 407 440 17 417 0 441 442 419 401 408 418 0 443
 +18 438 46 444 445 422 401 446 ?9 81 1 444 199 130 438 0 0 428 431 447 17 445 0
 448 449 450 438 451 452 0 453 -18 422 51 439 451 409 438 425 ?9 29 446 48 0 438
 0 425 -.02293421141803265 .0248684212565422 .013 29 425 53 0 422 446 423 -.0229
3421141803265 -.03518421202898025 .013 81 1 439 201 130 422 0 0 431 411 454 17 4
51 0 455 456 453 422 445 452 0 450 +15 455 6 0 453 457 0 17 456 0 455 458 451 40
9 459 460 0 415 -17 453 0 455 451 458 438 419 461 0 462 +16 452 16 463 ?451 460
 461 464 0 0 9 17 450 0 448 445 465 422 432 466 0 459 -15 448 169 0 465 467 0 17
 465 0 448 450 449 430 429 468 0 469 +17 432 0 470 437 459 430 450 466 0 465 +16
 466 163 471 ?432 399 436 400 0 0 9 17 459 0 470 432 421 422 456 460 0 0 +15 470
 167 0 437 472 0 17 421 0 470 459 437 409 434 436 0 456 -16 460 21 473 ?459 474
 452 475 0 0 9 81 1 473 213 130 460 0 0 476 477 478 16 474 41 479 ?415 418 460 4
80 0 0 9 30 475 23 0 460 464 480 0 +-.01146710570901632 -.03518421202898025 .013
 -1 0 0 30 464 18 0 452 481 475 0 +-.02293421141803265 -.00515789538621903 .013
 0 -1 0 30 480 43 0 474 475 482 0 +.02275000140070915 -.00515789538621903 .013 0
 -1 0 30 482 156 0 483 480 484 0 +-.01146710570901632 .0248684212565422 0 -1 0 0
 16 483 130 485 ?442 468 486 482 0 0 9 30 484 155 0 468 482 487 0 +-.02293421141
803265 -.00515789538621903 0 0 -1 0 16 468 126 477 ?465 488 483 484 0 0 9 30 487
 154 0 488 484 489 0 +-.01146710570901632 -.03518421202898025 0 -1 0 0 16 488 12
0 476 ?469 490 468 487 0 0 9 30 489 153 0 490 487 491 0 +.02275000140070915 -.00
515789538621903 0 0 -1 0 16 490 116 492 ?493 461 488 489 0 0 9 30 491 177 0 418
 489 494 0 +.02275000140070915 .0248684212565422 .013 0 0 -1 16 418 161 495 ?417
 436 474 491 0 0 9 30 494 178 0 436 491 400 0 +.02275000140070915 -.035184212028
98025 .013 0 0 -1 16 436 162 496 ?434 466 418 494 0 0 9 30 400 179 0 466 494 76
 0 +-.02293421141803265 -.03518421202898025 .013 0 0 -1 81 1 496 209 130 436 0 0
 495 485 497 81 1 495 208 130 418 0 0 471 496 498 81 1 485 210 130 483 0 0 496 4
99 500 82 3 497 6 3 1 81 1 499 211 130 461 0 0 485 476 501 82 3 500 6 4 1 16 461
 11 499 ?453 452 490 481 0 0 9 81 1 476 212 130 488 0 0 499 473 502 82 3 501 6 5
 1 82 3 502 6 6 1 30 481 13 0 461 406 464 0 +-.01146710570901632 .02486842125654
22 .013 -1 0 0 31 406 280 0 79 503 481 0 +0 .00664540752768517 .013 0 0 1 1 0 0
 .01409186423747982 31 503 281 0 486 0 406 0 +0 .00664540752768517 .163 0 0 1 1
 0 0 .01409186423747982 16 486 259 504 ?505 483 0 503 0 0 9 81 1 504 261 130 486
 0 0 506 507 508 17 505 0 509 505 505 0 510 486 0 0 +15 509 270 0 505 511 0 17 5
10 0 512 510 510 0 505 486 0 0 -15 512 265 0 510 513 514 14 513 262 515 ?511 516
 512 74 517 -0 0 511 516 403 15 514 266 0 405 513 0 17 405 0 514 405 405 0 518 7
9 0 0 +17 518 0 519 518 518 0 405 79 0 0 -15 519 246 0 518 457 455 14 457 1 520
 ?516 521 519 74 522 +0 0 516 521 403 81 1 520 316 243 457 523 0 524 525 526 14
 516 105 525 ?513 457 527 74 528 -0 0 513 457 403 14 521 166 524 ?457 472 414 74
 529 +0 0 457 472 403 50 522 3 0 457 517 528 0 +-92105008661747e-18 -.0051578953
8621903 .013 0 0 1 1 0 0 13 403 78 0 0 0 0 0 0 78 396 14 396 172 530 ?467 0 441
 74 75 -0 0 467 0 403 81 1 530 312 243 396 531 0 0 532 533 14 467 170 532 ?472 3
96 448 74 398 -0 0 472 396 403 15 441 171 0 442 396 0 17 442 0 441 462 417 426 4
43 483 0 0 +17 462 0 441 419 442 438 449 399 0 0 -17 443 0 527 493 429 401 442 4
83 0 416 -15 527 115 0 443 516 0 17 493 0 527 469 443 433 416 490 0 0 +17 429 0
 527 443 469 426 465 468 0 449 -17 416 0 414 408 434 401 493 490 0 0 -15 414 165
 0 416 521 0 17 469 0 527 429 493 430 437 488 0 0 +17 449 0 448 465 445 426 462
 399 0 442 +16 399 164 534 ?449 79 466 76 0 0 9 81 1 534 206 130 399 0 0 420 471
 535 81 1 420 205 130 409 0 0 412 534 536 81 1 471 207 130 466 0 0 534 495 537 8
2 3 535 6 0 1 82 3 537 6 1 1 82 3 536 6 7 0 17 437 0 470 421 432 433 469 488 0 4
93 -17 419 0 441 417 462 80 453 461 0 458 -17 458 0 455 453 456 80 415 474 0 0 -
17 415 0 414 434 408 409 458 474 0 0 +81 1 532 313 243 467 538 0 530 539 540 14
 472 168 539 ?521 467 470 74 541 +0 0 521 467 403 50 398 175 0 467 541 75 0 +-.0
2293421141803265 -.00515789538621903 .013 1 0 0 0 0 -1 50 541 174 0 472 529 398
 0 +-.01146710570901632 -.03518421202898025 .013 0 -1 0 0 0 -1 50 529 173 0 521
 528 541 0 +.02275000140070915 -.00515789538621903 .013 1 0 0 0 0 -1 50 528 152
 0 516 522 529 0 +-92105008661747e-18 -.00515789538621903 0 0 0 1 1 0 0 81 1 539
 314 243 472 542 0 532 524 543 81 1 542 221 130 472 0 539 531 538 544 81 1 524 3
15 243 521 506 0 539 520 545 83 3 543 .498039215686275 .498039215686275 .4980392
15686275 81 1 506 223 130 521 0 524 538 504 546 83 3 545 .498039215686275 .49803
9215686275 .498039215686275 81 1 538 222 130 467 0 532 542 506 547 82 3 546 6 5
 2 82 3 547 6 4 2 81 1 531 220 130 396 0 530 548 542 549 82 3 544 6 3 2 81 1 548
 218 130 516 0 525 479 531 550 82 3 549 6 2 2 81 1 525 317 243 516 548 0 520 515
 551 81 1 479 217 130 474 0 0 492 548 552 82 3 550 6 0 2 81 1 492 216 130 490 0
 0 463 479 553 82 3 552 6 11 1 81 1 463 215 130 452 0 0 477 492 554 82 3 553 6 1
0 1 81 1 477 214 130 468 0 0 473 463 555 82 3 554 6 9 1 82 3 555 6 8 1 81 1 515
 318 243 513 507 0 525 556 557 83 3 551 .498039215686275 .498039215686275 .49803
9215686275 81 1 507 264 130 513 0 515 504 558 559 81 1 556 319 243 511 558 0 515
 0 560 83 3 557 .498039215686275 .498039215686275 .498039215686275 14 511 267 55
6 ?0 513 509 74 561 +0 0 0 513 403 81 1 558 269 130 511 0 556 507 562 563 83 3 5
60 .498039215686275 .498039215686275 .498039215686275 81 1 562 284 130 9 0 564 5
58 404 565 82 3 563 9 2 2 81 1 564 309 283 9 562 393 0 0 566 81 1 404 285 130 79
 0 0 562 523 567 82 3 565 6 0 3 81 1 523 286 130 457 0 520 404 0 568 82 3 567 10
 0 1 82 3 568 10 0 2 81 1 393 310 285 9 564 70 0 0 569 98 6 566 80 97 114 116 32
 49 84 6 569 Part 150 561 279 0 511 0 517 0 +-92105008661747e-18 -.0051578953862
1903 .163 0 0 1 1 0 0 51 517 277 0 513 561 522 0 -0 .00664540752768517 .163 0 0
 -1 .01409186423747982 -1 0 0 82 3 559 9 0 2 83 3 540 .498039215686275 .49803921
5686275 .498039215686275 83 3 533 .498039215686275 .498039215686275 .49803921568
6275 83 3 526 .498039215686275 .498039215686275 .498039215686275 82 3 508 9 1 1
 82 3 498 6 2 1 82 3 478 6 7 1 81 1 431 200 130 430 0 0 444 439 570 82 3 454 6 3
 0 82 3 570 6 2 0 81 1 428 198 130 426 0 0 0 444 571 82 3 447 6 1 0 82 3 571 6 0
 0 82 3 440 6 4 0 82 3 435 6 6 0 82 3 413 6 5 0 19 397 182 0 9 0 78 74 0 S0 74 2
0 395 5 0 0 523 564 393 70 556 0 0 0 0 0 0 0 0 0 0 0 0 0 0 0 83 3 394 .498039215
686275 .498039215686275 .498039215686275 81 1 60 194 111 8 572 0 0 0 573 70 61 0
 4 T8 0 0 5 20 1 574 574 13 63 150 0 8 0 575 0 0 576 0 50 64 145 0 575 577 0 0 +
.0501250000670552 .02970394864678385 .188 0 1 0 0 0 1 30 65 149 0 68 578 0 0 +-.
02576315961778165 .02970394864678385 .188 0 0 -1 29 66 126 0 579 580 0 .12601315
9751892 .02970394864678385 .163 19 67 58 0 8 576 0 581 0 V0 16 68 133 582 ?583 0
 584 65 0 0 8 18 69 52 585 586 0 587 588 ?8 81 1 585 168 130 69 0 0 589 590 591
 17 586 0 592 593 594 69 595 596 0 597 -18 587 47 598 599 69 600 601 ?8 29 588 5
4 0 69 601 602 .126013159751892 .02970394864678385 .188 29 601 49 0 587 603 588
 .126013159751892 -.0152960531413555 .188 29 602 129 0 604 588 605 -.02576315961
778165 .02970394864678385 .163 18 604 117 606 583 607 0 602 ?8 29 605 128 0 607
 602 580 -.02576315961778165 -.0152960531413555 .163 18 607 113 590 608 609 604
 605 ?8 29 580 127 0 609 605 66 .126013159751892 -.0152960531413555 .163 18 609
 109 610 611 579 607 580 ?8 81 1 610 171 130 609 0 0 612 598 613 17 611 0 592 59
4 593 609 614 615 0 616 +18 579 105 589 595 617 609 66 ?8 81 1 589 167 130 579 0
 0 618 585 619 17 595 0 620 621 597 579 586 596 0 622 +18 617 37 618 623 600 579
 624 ?8 81 1 618 166 130 617 0 0 606 589 625 17 623 0 620 597 621 617 583 68 0 6
26 -18 600 42 612 627 587 617 603 ?8 29 624 39 0 617 0 603 -.02576315961778165 .
02970394864678385 .188 29 603 44 0 600 624 601 -.02576315961778165 -.01529605314
13555 .188 81 1 612 170 130 600 0 0 590 610 628 17 627 0 629 599 630 600 626 631
 0 632 +15 629 7 0 630 633 0 17 599 0 629 634 627 587 635 636 0 614 +17 630 0 62
9 627 634 617 597 637 0 0 -17 626 0 638 583 632 617 627 631 0 630 -16 631 22 639
 ?627 636 637 640 0 0 8 17 632 0 638 626 608 600 641 584 0 635 -15 638 138 0 608
 642 0 17 608 0 638 632 583 607 643 644 0 641 +17 641 0 645 616 635 607 632 584
 0 646 +16 584 132 647 ?641 68 615 578 0 0 8 17 635 0 645 641 614 600 599 636 0
 0 -15 645 136 0 616 648 0 17 614 0 645 635 616 587 611 615 0 593 -16 636 27 649
 ?599 650 631 651 0 0 8 81 1 649 180 130 636 0 0 652 653 654 16 650 32 655 ?593
 596 636 656 0 0 8 30 651 29 0 636 640 656 0 +.0501250000670552 -.01529605314135
55 .188 1 0 0 30 640 24 0 631 657 651 0 +-.02576315961778165 .00720394775271416
 .188 0 -1 0 30 656 34 0 650 651 658 0 +.126013159751892 .00720394775271416 .188
 0 -1 0 30 658 125 0 659 656 660 0 +.0501250000670552 .02970394864678385 .163 1
 0 0 16 659 101 661 ?622 644 0 658 0 0 8 30 660 124 0 644 658 662 0 +-.025763159
61778165 .00720394775271416 .163 0 -1 0 16 644 97 653 ?608 663 659 660 0 0 8 30
 662 123 0 663 660 664 0 +.0501250000670552 -.0152960531413555 .163 1 0 0 16 663
 93 652 ?616 665 644 662 0 0 8 30 664 122 0 665 662 666 0 +.126013159751892 .007
20394775271416 .163 0 -1 0 16 665 89 667 ?668 637 663 664 0 0 8 30 666 146 0 596
 664 669 0 +.126013159751892 .02970394864678385 .188 0 0 -1 16 596 130 670 ?595
 615 650 666 0 0 8 30 669 147 0 615 666 578 0 +.126013159751892 -.01529605314135
55 .188 0 0 -1 16 615 131 671 ?611 584 596 669 0 0 8 30 578 148 0 584 669 65 0 +
-.02576315961778165 -.0152960531413555 .188 0 0 -1 81 1 671 176 130 615 0 0 647
 661 672 81 1 647 175 130 584 0 0 670 671 673 81 1 661 177 130 659 0 0 671 674 6
75 82 3 672 19 3 1 81 1 674 178 130 637 0 0 661 652 676 82 3 675 19 4 1 16 637 1
7 674 ?597 631 665 657 0 0 8 81 1 652 179 130 663 0 0 674 649 677 82 3 676 19 5
 1 82 3 677 19 6 1 17 597 0 620 595 623 69 630 637 0 634 +30 657 19 0 637 0 640
 0 +.0501250000670552 .02970394864678385 .188 1 0 0 15 620 140 0 621 575 0 17 63
4 0 629 630 599 69 593 650 0 0 -17 593 0 592 611 586 587 634 650 0 0 +15 592 134
 0 594 678 0 17 594 0 592 586 611 579 668 665 0 0 -14 678 135 679 ?633 648 592 6
3 680 +0 0 633 648 581 81 1 679 198 243 678 681 0 682 683 684 14 633 1 683 ?685
 678 629 63 686 +0 0 685 678 581 14 648 137 682 ?678 642 645 63 687 -0 0 678 642
 581 50 680 142 0 678 688 687 0 +.126013159751892 .00720394775271416 .188 1 0 0
 0 0 -1 13 581 59 0 0 0 0 0 0 67 575 14 575 141 689 ?642 0 620 63 64 +0 0 642 0
 581 81 1 689 195 243 575 690 0 0 691 692 14 642 139 691 ?648 575 638 63 577 -0
 0 648 575 581 81 1 691 196 243 642 693 0 689 682 694 50 577 144 0 642 687 64 0
 +-.02576315961778165 .00720394775271416 .188 1 0 0 0 0 -1 50 687 143 0 648 680
 577 0 +.0501250000670552 -.0152960531413555 .188 0 1 0 0 0 1 81 1 693 189 130 6
42 0 691 695 681 696 81 1 682 197 243 648 695 0 691 679 697 83 3 694 .4980392156
86275 .498039215686275 .498039215686275 81 1 695 188 130 648 0 682 698 693 699 8
3 3 697 .498039215686275 .498039215686275 .498039215686275 81 1 698 187 130 633
 0 683 700 695 701 82 3 699 19 3 2 81 1 683 199 243 633 698 0 679 702 703 81 1 7
00 186 130 685 0 702 690 698 704 82 3 701 19 2 2 14 685 80 702 ?0 633 705 63 688
 -0 0 0 633 581 81 1 702 200 243 685 700 0 683 0 706 81 1 690 185 130 575 0 689
 655 700 707 82 3 704 19 1 2 81 1 655 184 130 650 0 0 667 690 708 82 3 707 19 0
 2 81 1 667 183 130 665 0 0 639 655 709 82 3 708 19 11 1 81 1 639 182 130 631 0
 0 653 667 710 82 3 709 19 10 1 81 1 653 181 130 644 0 0 649 639 711 82 3 710 19
 9 1 82 3 711 19 8 1 83 3 706 .498039215686275 .498039215686275 .498039215686275
 15 705 88 0 622 685 0 50 688 121 0 685 686 680 0 +.0501250000670552 .0072039477
5271416 .163 0 0 1 1 0 0 50 686 3 0 633 0 688 0 +.0501250000670552 .007203947752
71416 .188 0 0 1 1 0 0 17 622 0 705 668 643 579 621 659 0 594 +17 668 0 705 646
 622 609 594 665 0 0 +17 643 0 705 622 646 604 608 644 0 621 -17 621 0 620 623 5
95 604 622 659 0 0 -17 646 0 705 643 668 607 616 663 0 0 -17 616 0 645 614 641 6
09 646 663 0 668 +83 3 703 .498039215686275 .498039215686275 .498039215686275 81
 1 681 190 130 678 0 679 693 712 713 82 3 696 19 4 2 81 1 712 191 130 8 0 714 68
1 0 715 82 3 713 19 5 2 81 1 714 192 283 8 712 572 0 0 716 82 3 715 19 0 3 81 1
 572 193 285 8 714 60 0 0 717 98 6 716 80 97 114 116 32 56 84 6 717 Part 883 3 6
92 .498039215686275 .498039215686275 .498039215686275 83 3 684 .498039215686275
 .498039215686275 .498039215686275 81 1 670 174 130 596 0 0 582 647 718 82 3 673
 19 2 1 81 1 582 173 130 68 0 0 598 670 719 82 3 718 19 1 1 81 1 598 172 130 587
 0 0 610 582 720 82 3 719 19 0 1 82 3 720 19 7 0 82 3 654 19 7 1 17 583 0 638 60
8 626 604 623 68 0 643 +81 1 590 169 130 607 0 0 585 612 721 82 3 628 19 5 0 82
 3 721 19 4 0 81 1 606 165 130 604 0 0 0 618 722 82 3 625 19 1 0 82 3 722 19 0 0
 82 3 619 19 2 0 82 3 613 19 6 0 82 3 591 19 3 0 19 576 151 0 8 0 67 63 0 S0 74
 20 574 5 0 0 712 714 572 60 702 0 0 0 0 0 0 0 0 0 0 0 0 0 0 0 83 3 573 .4980392
15686275 .498039215686275 .498039215686275 81 1 53 31 111 7 723 0 0 0 724 70 54
 0 4 T7 0 0 5 20 1 725 725 13 55 2 0 7 0 726 0 0 58 726 51 56 18 0 726 0 0 0 +.0
8 .00686859665438533 .0746894702315331 1 0 0 .0200142925458074 0 0 -1 31 57 13 0
 59 727 0 0 +.12 .00686859665438533 .0746894702315331 1 0 0 0 1 0 .0200142925458
074 19 58 1 0 7 0 0 55 0 V0 16 59 9 728 ?729 0 730 57 0 0 7 81 1 728 26 130 59 0
 0 731 732 733 17 729 0 0 0 0 0 734 59 0 0 +16 730 3 731 ?735 59 0 727 0 0 7 81
 1 731 25 130 730 0 0 0 728 736 17 735 0 737 735 735 0 738 730 0 0 +31 727 6 0 7
30 0 57 0 +.08 .00686859665438533 .0746894702315331 1 0 0 0 1 0 .020014292545807
4 15 737 14 0 735 726 739 17 738 0 0 0 0 0 735 730 0 0 -14 726 15 740 ?0 0 737 5
5 56 +0 0 0 0 55 15 739 16 0 734 726 0 17 734 0 739 734 734 0 729 59 0 0 -81 1 7
40 32 243 726 732 0 0 0 741 81 1 732 27 130 726 0 740 728 742 743 83 3 741 .4980
39215686275 .498039215686275 .498039215686275 81 1 742 28 130 7 0 744 732 0 745
 82 3 743 16 8 2 81 1 744 29 283 7 742 723 0 0 746 82 3 745 16 1 3 81 1 723 30 2
85 7 744 53 0 0 747 98 9 746 83 117 114 102 97 99 101 32 51 84 9 747 Surface 382
 3 736 16 14 1 82 3 733 16 15 1 74 20 725 5 0 0 742 744 723 53 740 0 0 0 0 0 0 0
 0 0 0 0 0 0 0 0 83 3 724 .498039215686275 .498039215686275 .498039215686275 81
 1 44 320 111 6 748 0 0 0 749 70 45 0 4 T6 0 0 5 20 1 750 750 13 46 181 0 6 0 75
1 0 0 752 0 50 47 176 0 751 753 0 0 +.0885328942909837 .0248684212565422 .013 0
 -1 0 0 0 -1 30 48 180 0 754 755 0 0 +.0770657885819674 .0248684212565422 .013 0
 0 -1 29 49 157 0 756 757 0 .1227500014007092 .0248684212565422 0 19 50 77 0 6 7
52 0 758 0 V0 16 51 244 759 ?760 0 754 761 0 0 6 18 52 71 762 763 0 764 765 ?6 8
1 1 762 292 130 52 0 0 766 767 768 17 763 0 769 770 771 52 772 773 0 774 -18 764
 66 775 776 52 777 778 ?6 29 765 73 0 52 778 779 .1227500014007092 .024868421256
5422 .013 29 778 68 0 764 780 765 .1227500014007092 -.03518421202898025 .013 29
 779 160 0 781 765 782 .0770657885819674 .0248684212565422 0 18 781 148 783 784
 785 0 779 ?6 29 782 159 0 785 779 757 .0770657885819674 -.03518421202898025 0 1
8 785 144 786 787 788 781 782 ?6 29 757 158 0 788 782 49 .1227500014007092 -.035
18421202898025 0 18 788 140 767 789 756 785 757 ?6 81 1 767 293 130 788 0 0 762
 775 790 17 789 0 769 771 770 788 776 791 0 792 +18 756 136 766 772 793 788 49 ?
6 81 1 766 291 130 756 0 0 794 762 795 17 772 0 796 797 774 756 763 773 0 798 +1
8 793 46 799 800 777 756 801 ?6 81 1 799 288 130 793 0 0 783 786 802 17 800 0 80
3 804 805 793 806 807 0 808 -18 777 51 794 806 764 793 780 ?6 29 801 48 0 793 0
 780 .0770657885819674 .0248684212565422 .013 29 780 53 0 777 801 778 .077065788
5819674 -.03518421202898025 .013 81 1 794 290 130 777 0 0 786 766 809 17 806 0 8
10 811 808 777 800 807 0 805 +15 810 6 0 808 812 0 17 811 0 810 813 806 764 814
 815 0 770 -17 808 0 810 806 813 793 774 816 0 817 +16 807 16 818 ?806 815 816 8
19 0 0 6 17 805 0 803 800 820 777 787 821 0 814 -15 803 169 0 820 822 0 17 820 0
 803 805 804 785 784 823 0 824 +17 787 0 825 792 814 785 805 821 0 820 +16 821 1
63 826 ?787 754 791 755 0 0 6 17 814 0 825 787 776 777 811 815 0 0 +15 825 167 0
 792 827 0 17 776 0 825 814 792 764 789 791 0 811 -16 815 21 828 ?814 829 807 83
0 0 0 6 81 1 828 302 130 815 0 0 831 832 833 16 829 41 834 ?770 773 815 835 0 0
 6 30 830 23 0 815 819 835 0 +.0885328942909837 -.03518421202898025 .013 -1 0 0
 30 819 18 0 807 836 830 0 +.0770657885819674 -.00515789538621903 .013 0 -1 0 30
 835 43 0 829 830 837 0 +.1227500014007092 -.00515789538621903 .013 0 -1 0 30 83
7 156 0 838 835 839 0 +.0885328942909837 .0248684212565422 0 -1 0 0 16 838 130 8
40 ?797 823 841 837 0 0 6 30 839 155 0 823 837 842 0 +.0770657885819674 -.005157
89538621903 0 0 -1 0 16 823 126 832 ?820 843 838 839 0 0 6 30 842 154 0 843 839
 844 0 +.0885328942909837 -.03518421202898025 0 -1 0 0 16 843 120 831 ?824 845 8
23 842 0 0 6 30 844 153 0 845 842 846 0 +.1227500014007092 -.00515789538621903 0
 0 -1 0 16 845 116 847 ?848 816 843 844 0 0 6 30 846 177 0 773 844 849 0 +.12275
00014007092 .0248684212565422 .013 0 0 -1 16 773 161 850 ?772 791 829 846 0 0 6
 30 849 178 0 791 846 755 0 +.1227500014007092 -.03518421202898025 .013 0 0 -1 1
6 791 162 851 ?789 821 773 849 0 0 6 30 755 179 0 821 849 48 0 +.077065788581967
4 -.03518421202898025 .013 0 0 -1 81 1 851 298 130 791 0 0 850 840 852 81 1 850
 297 130 773 0 0 826 851 853 81 1 840 299 130 838 0 0 851 854 855 82 3 852 15 3
 1 81 1 854 300 130 816 0 0 840 831 856 82 3 855 15 4 1 16 816 11 854 ?808 807 8
45 836 0 0 6 81 1 831 301 130 843 0 0 854 828 857 82 3 856 15 5 1 82 3 857 15 6
 1 30 836 13 0 816 761 819 0 +.0885328942909837 .0248684212565422 .013 -1 0 0 31
 761 280 0 51 858 836 0 +.1 .00664540752768517 .013 0 0 1 1 0 0 .014091864237479
82 31 858 281 0 841 0 761 0 +.1 .00664540752768517 .163 0 0 1 1 0 0 .01409186423
747982 16 841 259 859 ?860 838 0 858 0 0 6 81 1 859 307 130 841 0 0 834 759 861
 17 860 0 862 860 860 0 863 841 0 0 +15 862 270 0 860 864 0 17 863 0 865 863 863
 0 860 841 0 0 -15 865 265 0 863 866 867 14 866 262 868 ?864 869 865 46 870 -0 0
 864 869 758 15 867 266 0 760 866 0 17 760 0 867 760 760 0 871 51 0 0 +17 871 0
 872 871 871 0 760 51 0 0 -15 872 246 0 871 812 810 14 812 1 873 ?869 874 872 46
 875 +0 0 869 874 758 81 1 873 325 243 812 876 0 877 878 879 14 869 105 878 ?866
 812 880 46 881 -0 0 866 812 758 14 874 166 877 ?812 827 769 46 882 +0 0 812 827
 758 50 875 3 0 812 870 881 0 +.0999078949913383 -.00515789538621903 .013 0 0 1
 1 0 0 13 758 78 0 0 0 0 0 0 50 751 14 751 172 883 ?822 0 796 46 47 -0 0 822 0 7
58 81 1 883 321 243 751 884 0 0 885 886 14 822 170 885 ?827 751 803 46 753 -0 0
 827 751 758 15 796 171 0 797 751 0 17 797 0 796 817 772 781 798 838 0 0 +17 817
 0 796 774 797 793 804 754 0 0 -17 798 0 880 848 784 756 797 838 0 771 -15 880 1
15 0 798 869 0 17 848 0 880 824 798 788 771 845 0 0 +17 784 0 880 798 824 781 82
0 823 0 804 -17 771 0 769 763 789 756 848 845 0 0 -15 769 165 0 771 874 0 17 824
 0 880 784 848 785 792 843 0 0 +17 804 0 803 820 800 781 817 754 0 797 +16 754 1
64 887 ?804 51 821 48 0 0 6 81 1 887 295 130 754 0 0 775 826 888 81 1 775 294 13
0 764 0 0 767 887 889 81 1 826 296 130 821 0 0 887 850 890 82 3 888 15 0 1 82 3
 890 15 1 1 82 3 889 15 7 0 17 792 0 825 776 787 788 824 843 0 848 -17 774 0 796
 772 817 52 808 816 0 813 -17 813 0 810 808 811 52 770 829 0 0 -17 770 0 769 789
 763 764 813 829 0 0 +81 1 885 322 243 822 891 0 883 892 893 14 827 168 892 ?874
 822 825 46 894 +0 0 874 822 758 50 753 175 0 822 894 47 0 +.0770657885819674 -.
00515789538621903 .013 1 0 0 0 0 -1 50 894 174 0 827 882 753 0 +.088532894290983
7 -.03518421202898025 .013 0 -1 0 0 0 -1 50 882 173 0 874 881 894 0 +.1227500014
007092 -.00515789538621903 .013 1 0 0 0 0 -1 50 881 152 0 869 875 882 0 +.099907
8949913383 -.00515789538621903 0 0 0 1 1 0 0 81 1 892 323 243 827 895 0 885 877
 896 81 1 895 311 130 827 0 892 884 891 897 81 1 877 324 243 874 898 0 892 873 8
99 83 3 896 .498039215686275 .498039215686275 .498039215686275 81 1 898 313 130
 874 0 877 891 900 901 83 3 899 .498039215686275 .498039215686275 .4980392156862
75 81 1 891 312 130 822 0 885 895 898 902 81 1 900 314 130 866 0 868 898 903 904
 82 3 901 15 4 2 81 1 868 327 243 866 900 0 878 905 906 81 1 903 315 130 864 0 9
05 900 876 907 82 3 904 15 5 2 14 864 267 905 ?0 866 862 46 908 +0 0 0 866 758 8
1 1 905 328 243 864 903 0 868 0 909 81 1 876 316 130 812 0 873 903 910 911 82 3
 907 15 6 2 81 1 910 317 130 6 0 912 876 0 913 82 3 911 15 7 2 81 1 912 318 283
 6 910 748 0 0 914 82 3 913 15 0 3 81 1 748 319 285 6 912 44 0 0 915 98 6 914 80
 97 114 116 32 52 84 6 915 Part 483 3 909 .498039215686275 .498039215686275 .498
039215686275 50 908 279 0 864 0 870 0 +.0999078949913383 -.00515789538621903 .16
3 0 0 1 1 0 0 51 870 277 0 866 908 875 0 -.1 .00664540752768517 .163 0 0 -1 .014
09186423747982 -1 0 0 81 1 878 326 243 869 916 0 873 868 917 83 3 906 .498039215
686275 .498039215686275 .498039215686275 81 1 916 309 130 869 0 878 759 884 918
 83 3 917 .498039215686275 .498039215686275 .498039215686275 81 1 759 308 130 51
 0 0 859 916 919 81 1 884 310 130 751 0 883 916 895 920 82 3 918 15 0 2 82 3 920
 15 1 2 82 3 919 15 13 1 82 3 902 15 3 2 82 3 897 15 2 2 83 3 893 .4980392156862
75 .498039215686275 .498039215686275 83 3 886 .498039215686275 .498039215686275
 .498039215686275 83 3 879 .498039215686275 .498039215686275 .498039215686275 81
 1 834 306 130 829 0 0 847 859 921 82 3 861 15 12 1 81 1 847 305 130 845 0 0 818
 834 922 82 3 921 15 11 1 81 1 818 304 130 807 0 0 832 847 923 82 3 922 15 10 1
 81 1 832 303 130 823 0 0 828 818 924 82 3 923 15 9 1 82 3 924 15 8 1 82 3 853 1
5 2 1 82 3 833 15 7 1 81 1 786 289 130 785 0 0 799 794 925 82 3 809 15 3 0 82 3
 925 15 2 0 81 1 783 287 130 781 0 0 0 799 926 82 3 802 15 1 0 82 3 926 15 0 0 8
2 3 795 15 4 0 82 3 790 15 6 0 82 3 768 15 5 0 19 752 182 0 6 0 50 46 0 S0 74 20
 750 5 0 0 910 912 748 44 905 0 0 0 0 0 0 0 0 0 0 0 0 0 0 0 83 3 749 .4980392156
86275 .498039215686275 .498039215686275 81 1 37 54 111 5 927 0 0 0 928 70 38 0 4
 T5 0 0 5 20 1 929 929 13 39 14 0 5 0 930 0 0 931 0 51 40 43 0 930 932 0 0 +0 .0
0686859665438533 .1392835080623626 1 0 0 .0201864254546735 0 0 -1 31 41 42 0 933
 934 0 0 +-.02 .00686859665438533 .1392835080623626 1 0 0 0 0 -1 .02018642545467
35 19 42 13 0 5 931 0 935 0 V0 16 43 7 936 ?937 0 933 934 0 0 5 81 1 936 46 130
 43 0 0 0 938 939 17 937 0 940 937 937 0 941 43 0 0 +16 933 38 938 ?942 43 0 41
 0 0 5 31 934 20 0 43 0 41 0 +.02 .00686859665438533 .1392835080623626 1 0 0 0 0
 -1 .0201864254546735 81 1 938 47 130 933 0 0 936 943 944 17 942 0 945 942 942 0
 946 933 0 0 +15 945 33 0 942 930 0 17 946 0 947 946 946 0 942 933 0 0 -15 947 3
7 0 946 948 0 14 948 34 949 ?0 950 947 39 932 -0 0 0 950 935 81 1 949 57 243 948
 951 0 952 0 953 14 950 1 952 ?948 930 940 39 954 +0 0 948 930 935 50 932 41 0 9
48 954 40 0 +-.02 .00686859665438533 .107072555601381 1 0 0 0 1 0 13 935 27 0 0
 0 0 0 0 42 930 14 930 26 955 ?950 0 956 39 40 +0 0 950 0 935 81 1 955 55 243 93
0 943 0 0 952 957 15 956 25 0 941 930 945 17 941 0 956 941 941 0 937 43 0 0 -81
 1 943 48 130 930 0 955 938 958 959 81 1 952 56 243 950 958 0 955 949 960 83 3 9
57 .498039215686275 .498039215686275 .498039215686275 81 1 958 49 130 950 0 952
 943 951 961 83 3 960 .498039215686275 .498039215686275 .498039215686275 81 1 95
1 50 130 948 0 949 958 962 963 82 3 961 14 4 2 81 1 962 51 130 5 0 964 951 0 965
 82 3 963 14 5 2 81 1 964 52 283 5 962 927 0 0 966 82 3 965 14 1 3 81 1 927 53 2
85 5 964 37 0 0 967 98 6 966 80 97 114 116 32 51 84 6 967 Part 382 3 959 14 1 2
 50 954 19 0 950 0 932 0 +.02 .00686859665438533 .107072555601381 1 0 0 0 1 0 15
 940 6 0 937 950 0 83 3 953 .498039215686275 .498039215686275 .498039215686275 8
2 3 944 14 3 1 82 3 939 14 2 1 19 931 30 0 5 0 42 39 0 S0 74 20 929 5 0 0 962 96
4 927 37 949 0 0 0 0 0 0 0 0 0 0 0 0 0 0 0 83 3 928 .498039215686275 .4980392156
86275 .498039215686275 81 1 30 54 111 4 968 0 0 0 969 70 31 0 4 T4 0 0 5 20 1 97
0 970 13 32 14 0 4 0 971 0 0 972 0 51 33 43 0 971 973 0 0 +0 .00686859665438533
 .0746894702315331 1 0 0 .0200142925458074 0 0 -1 31 34 42 0 974 975 0 0 +-.02 .
00686859665438533 .0746894702315331 1 0 0 0 0 -1 .0200142925458074 19 35 13 0 4
 972 0 976 0 V0 16 36 7 977 ?978 0 974 975 0 0 4 81 1 977 46 130 36 0 0 0 979 98
0 17 978 0 981 978 978 0 982 36 0 0 +16 974 38 979 ?983 36 0 34 0 0 4 31 975 20
 0 36 0 34 0 +.02 .00686859665438533 .0746894702315331 1 0 0 0 0 -1 .02001429254
58074 81 1 979 47 130 974 0 0 977 984 985 17 983 0 986 983 983 0 987 974 0 0 +15
 986 33 0 983 971 0 17 987 0 988 987 987 0 983 974 0 0 -15 988 37 0 987 989 0 14
 989 34 990 ?0 991 988 32 973 -0 0 0 991 976 81 1 990 57 243 989 992 0 993 0 994
 14 991 1 993 ?989 971 981 32 995 +0 0 989 971 976 50 973 41 0 989 995 33 0 +-.0
2 .00686859665438533 .107072555601381 1 0 0 0 1 0 13 976 27 0 0 0 0 0 0 35 971 1
4 971 26 996 ?991 0 997 32 33 +0 0 991 0 976 81 1 996 55 243 971 984 0 0 993 998
 15 997 25 0 982 971 986 17 982 0 997 982 982 0 978 36 0 0 -81 1 984 48 130 971
 0 996 979 999 1000 81 1 993 56 243 991 999 0 996 990 1001 83 3 998 .49803921568
6275 .498039215686275 .498039215686275 81 1 999 49 130 991 0 993 984 992 1002 83
 3 1001 .498039215686275 .498039215686275 .498039215686275 81 1 992 50 130 989 0
 990 999 1003 1004 82 3 1002 14 2 2 81 1 1003 51 130 4 0 1005 992 0 1006 82 3 10
04 14 3 2 81 1 1005 52 283 4 1003 968 0 0 1007 82 3 1006 14 0 3 81 1 968 53 285
 4 1005 30 0 0 1008 98 6 1007 80 97 114 116 32 50 84 6 1008 Part 282 3 1000 14 0
 2 50 995 19 0 991 0 973 0 +.02 .00686859665438533 .107072555601381 1 0 0 0 1 0
 15 981 6 0 978 991 0 83 3 994 .498039215686275 .498039215686275 .49803921568627
5 82 3 985 14 1 1 82 3 980 14 0 1 19 972 30 0 4 0 35 32 0 S0 74 20 970 5 0 0 100
3 1005 968 30 990 0 0 0 0 0 0 0 0 0 0 0 0 0 0 0 83 3 969 .498039215686275 .49803
9215686275 .498039215686275 81 1 22 32 111 3 1009 0 0 0 1010 70 23 0 4 T3 0 0 5
 20 1 1011 1011 13 25 6 0 3 0 1012 0 0 28 1012 51 26 23 0 1012 0 0 0 +-.02 .0068
6859665438533 .1392835080623626 1 0 0 .0201864254546735 0 0 -1 31 27 18 0 29 101
3 0 0 +.02 .00686859665438533 .1392835080623626 1 0 0 0 1 0 .0201864254546735 19
 28 1 0 3 0 0 25 0 V0 16 29 14 1014 ?1015 0 1016 27 0 0 3 81 1 1014 27 130 29 0
 0 1017 1018 1019 17 1015 0 0 0 0 0 1020 29 0 0 +16 1016 5 1017 ?1021 29 0 1013
 0 0 3 81 1 1017 26 130 1016 0 0 0 1014 1022 17 1021 0 1023 1021 1021 0 1024 101
6 0 0 +31 1013 7 0 1016 0 27 0 +-.02 .00686859665438533 .1392835080623626 1 0 0
 0 1 0 .0201864254546735 15 1023 19 0 1021 1012 1025 17 1024 0 0 0 0 0 1021 1016
 0 0 -14 1012 20 1026 ?0 0 1023 25 26 +0 0 0 0 25 15 1025 21 0 1020 1012 0 17 10
20 0 1025 1020 1020 0 1015 29 0 0 -81 1 1026 33 243 1012 1018 0 0 0 1027 81 1 10
18 28 130 1012 0 1026 1014 1028 1029 83 3 1027 .498039215686275 .498039215686275
 .498039215686275 81 1 1028 29 130 3 0 1030 1018 0 1031 82 3 1029 13 1 2 81 1 10
30 30 283 3 1028 1009 0 0 1032 82 3 1031 13 1 3 81 1 1009 31 285 3 1030 22 0 0 1
033 98 9 1032 83 117 114 102 97 99 101 32 50 84 9 1033 Surface 282 3 1022 13 2 1
 82 3 1019 13 3 1 74 20 1011 5 0 0 1028 1030 1009 22 1026 0 0 0 0 0 0 0 0 0 0 0
 0 0 0 0 83 3 1010 .498039215686275 .498039215686275 .498039215686275 81 1 14 60
 111 2 1034 0 0 0 1035 70 15 0 4 T2 0 0 5 20 1 1036 1036 13 17 14 0 2 0 1037 0 0
 1038 0 51 18 43 0 1037 1039 0 0 +.1 .00686859665438533 .1392835080623626 1 0 0
 .0201864254546735 0 0 -1 31 19 42 0 1040 1041 0 0 +.08 .00686859665438533 .1392
835080623626 1 0 0 0 0 -1 .0201864254546735 19 20 13 0 2 1038 0 1042 0 V0 16 21
 7 1043 ?1044 0 1040 1041 0 0 2 81 1 1043 52 130 21 0 0 0 1045 1046 17 1044 0 10
47 1044 1044 0 1048 21 0 0 +16 1040 38 1045 ?1049 21 0 19 0 0 2 31 1041 20 0 21
 0 19 0 +.12 .00686859665438533 .1392835080623626 1 0 0 0 0 -1 .0201864254546735
 81 1 1045 53 130 1040 0 0 1043 1050 1051 17 1049 0 1052 1049 1049 0 1053 1040 0
 0 +15 1052 33 0 1049 1037 0 17 1053 0 1054 1053 1053 0 1049 1040 0 0 -15 1054 3
7 0 1053 1055 0 14 1055 34 1056 ?0 1057 1054 17 1039 -0 0 0 1057 1042 81 1 1056
 63 243 1055 1058 0 1059 0 1060 14 1057 1 1059 ?1055 1037 1047 17 1061 +0 0 1055
 1037 1042 50 1039 41 0 1055 1061 18 0 +.08 .00686859665438533 .107072555601381
 1 0 0 0 1 0 13 1042 27 0 0 0 0 0 0 20 1037 14 1037 26 1062 ?1057 0 1063 17 18 +
0 0 1057 0 1042 81 1 1062 61 243 1037 1050 0 0 1059 1064 15 1063 25 0 1048 1037
 1052 17 1048 0 1063 1048 1048 0 1044 21 0 0 -81 1 1050 54 130 1037 0 1062 1045
 1065 1066 81 1 1059 62 243 1057 1065 0 1062 1056 1067 83 3 1064 .49803921568627
5 .498039215686275 .498039215686275 81 1 1065 55 130 1057 0 1059 1050 1058 1068
 83 3 1067 .498039215686275 .498039215686275 .498039215686275 81 1 1058 56 130 1
055 0 1056 1065 1069 1070 82 3 1068 16 14 2 81 1 1069 57 130 2 0 1071 1058 0 107
2 82 3 1070 16 15 2 81 1 1071 58 283 2 1069 1034 0 0 1073 82 3 1072 16 4 3 81 1
 1034 59 285 2 1071 14 0 0 1074 98 6 1073 80 97 114 116 32 55 84 6 1074 Part 782
 3 1066 16 11 2 50 1061 19 0 1057 0 1039 0 +.12 .00686859665438533 .107072555601
381 1 0 0 0 1 0 15 1047 6 0 1044 1057 0 83 3 1060 .498039215686275 .498039215686
275 .498039215686275 82 3 1051 16 21 1 82 3 1046 16 20 1 19 1038 30 0 2 0 20 17
 0 S0 74 20 1036 5 0 0 1069 1071 1034 14 1056 0 0 0 0 0 0 0 0 0 0 0 0 0 0 0 83 3
 1035 .498039215686275 .498039215686275 .498039215686275 1 0 
